<?xml version="1.0" encoding="utf-8"?>
<!-- Generator: Adobe Illustrator 17.0.0, SVG Export Plug-In . SVG Version: 6.00 Build 0)  -->
<!DOCTYPE svg PUBLIC "-//W3C//DTD SVG 1.1//EN" "http://www.w3.org/Graphics/SVG/1.1/DTD/svg11.dtd">
<svg version="1.1" id="Layer_1" xmlns="http://www.w3.org/2000/svg" xmlns:xlink="http://www.w3.org/1999/xlink" x="0px" y="0px"
	 width="20px" height="16px" viewBox="0 0 20 16" enable-background="new 0 0 20 16" xml:space="preserve">
<g>
	<path fill="#2196F3" d="M19.177,3.747c-0.087,0-0.176,0.013-0.265,0.039L17.902,4.08l-1.048-2.695C16.557,0.621,15.679,0,14.897,0
		H5.089C4.307,0,3.429,0.621,3.132,1.385L2.085,4.076l-0.997-0.29C1,3.76,0.91,3.747,0.823,3.747C0.346,3.747,0,4.132,0,4.662V5.29
		c0,0.619,0.477,1.122,1.063,1.122h0.114L1.008,6.847c-0.276,0.709-0.5,1.91-0.5,2.677v5.354C0.508,15.497,0.984,16,1.571,16h1.388
		c0.586,0,1.063-0.503,1.063-1.122v-1.337h11.943v1.337c0,0.619,0.477,1.122,1.063,1.122h1.388c0.586,0,1.063-0.503,1.063-1.122
		V9.524c0-0.767-0.225-1.968-0.5-2.677l-0.169-0.435h0.128C19.523,6.412,20,5.909,20,5.29V4.662C20,4.132,19.654,3.747,19.177,3.747
		L19.177,3.747z M2.848,5.803l1.585-4.077c0.178-0.457,0.705-0.831,1.173-0.831h8.774c0.467,0,0.996,0.374,1.173,0.831l1.586,4.077
		c0.177,0.457-0.06,0.83-0.527,0.83H3.375C2.908,6.633,2.67,6.259,2.848,5.803L2.848,5.803z M6.387,10.959
		c0,0.247-0.191,0.449-0.425,0.449H2.95c-0.234,0-0.425-0.202-0.425-0.449V9.433c0-0.247,0.191-0.449,0.425-0.449h3.012
		c0.234,0,0.425,0.202,0.425,0.449V10.959z M17.433,10.959c0,0.247-0.191,0.449-0.425,0.449h-3.012
		c-0.234,0-0.425-0.202-0.425-0.449V9.433c0-0.247,0.191-0.449,0.425-0.449h3.012c0.234,0,0.425,0.202,0.425,0.449V10.959z
		 M17.433,10.959"/>
</g>
<g>
</g>
<g>
</g>
<g>
</g>
<g>
</g>
<g>
</g>
<g>
</g>
</svg>
