<?xml version="1.0" encoding="utf-8"?>
<!-- Generator: Adobe Illustrator 17.0.0, SVG Export Plug-In . SVG Version: 6.00 Build 0)  -->
<!DOCTYPE svg PUBLIC "-//W3C//DTD SVG 1.1//EN" "http://www.w3.org/Graphics/SVG/1.1/DTD/svg11.dtd">
<svg version="1.1" id="Layer_1" xmlns="http://www.w3.org/2000/svg" xmlns:xlink="http://www.w3.org/1999/xlink" x="0px" y="0px"
	 width="20px" height="18px" viewBox="0 0 20 18" enable-background="new 0 0 20 18" xml:space="preserve">
<g>
	<path fill="#FF9800" d="M0.516,12.699h10.36c0.073,0,0.143-0.034,0.191-0.093c0.049-0.059,0.073-0.138,0.066-0.217
		c-0.199-2.252-2.558-4.029-5.438-4.029c-2.88,0-5.238,1.777-5.438,4.029c-0.007,0.079,0.017,0.158,0.066,0.217
		C0.373,12.665,0.443,12.699,0.516,12.699z"/>
	<path fill="#FF9800" d="M10.876,15.454H0.516c-0.073,0-0.143,0.034-0.192,0.093c-0.049,0.059-0.073,0.138-0.066,0.217
		c0.054,0.613,0.269,1.191,0.61,1.707C1.088,17.803,1.441,18,1.817,18h7.757c0.376,0,0.73-0.197,0.949-0.529
		c0.341-0.516,0.556-1.094,0.61-1.707c0.007-0.079-0.017-0.158-0.066-0.217C11.018,15.488,10.949,15.454,10.876,15.454z"/>
	<path fill="#FF9800" d="M10.741,13.375H0.65c-0.359,0-0.65,0.317-0.65,0.709c0,0.392,0.291,0.709,0.65,0.709h10.09
		c0.359,0,0.65-0.318,0.65-0.709C11.391,13.693,11.1,13.375,10.741,13.375z"/>
	<path fill="#FF9800" d="M19.349,6.309c-0.092,0-0.146-0.11-0.097-0.195c0.06-0.106,0.096-0.23,0.097-0.364
		c0.004-0.395-0.307-0.717-0.669-0.717h-2.762l0.215-3.282l2.312,1.072c0.34,0.158,0.735-0.025,0.865-0.407
		c0.122-0.358-0.05-0.757-0.373-0.906l-3.133-1.453c-0.194-0.09-0.415-0.072-0.594,0.047c-0.179,0.12-0.295,0.326-0.31,0.555
		l-0.287,4.374h-2.787c-0.362,0-0.674,0.323-0.67,0.718c0.001,0.133,0.037,0.258,0.097,0.364c0.049,0.085-0.005,0.195-0.097,0.195
		c-0.359,0-0.65,0.318-0.65,0.709c0,0.339,0.21,0.692,0.508,0.692h8.478C19.79,7.71,20,7.357,20,7.019
		C20,6.627,19.709,6.309,19.349,6.309z"/>
	<path fill="#FF9800" d="M12.456,17.421C12.492,17.751,12.749,18,13.053,18h4.399c0.305,0,0.561-0.249,0.597-0.579l0.978-9.035
		h-7.549L12.456,17.421z"/>
</g>
<g>
</g>
<g>
</g>
<g>
</g>
<g>
</g>
<g>
</g>
<g>
</g>
</svg>
