<?xml version="1.0" encoding="utf-8"?>
<!-- Generator: Adobe Illustrator 17.0.0, SVG Export Plug-In . SVG Version: 6.00 Build 0)  -->
<!DOCTYPE svg PUBLIC "-//W3C//DTD SVG 1.1//EN" "http://www.w3.org/Graphics/SVG/1.1/DTD/svg11.dtd">
<svg version="1.1" id="Layer_1" xmlns="http://www.w3.org/2000/svg" xmlns:xlink="http://www.w3.org/1999/xlink" x="0px" y="0px"
	 width="20px" height="20px" viewBox="0 0 20 20" enable-background="new 0 0 20 20" xml:space="preserve">
<g>
	<path fill="#3F51B5" d="M18.636,16.364h-3.182c-2.005,0-3.636-1.631-3.636-3.636s1.631-3.636,3.636-3.636h3.182
		c0.251,0,0.455-0.203,0.455-0.455V7.273c0-0.953-0.739-1.728-1.673-1.804l-2.611-4.56c-0.242-0.422-0.633-0.723-1.1-0.848
		c-0.465-0.124-0.952-0.059-1.368,0.183L3.39,5.455H1.818C0.815,5.455,0,6.27,0,7.273v10.909C0,19.185,0.815,20,1.818,20h15.455
		c1.003,0,1.818-0.815,1.818-1.818v-1.364C19.091,16.567,18.888,16.364,18.636,16.364z M12.399,5.455l2.971-1.73l0.99,1.73H12.399z
		 M12.797,1.031c0.206-0.12,0.446-0.152,0.675-0.091c0.232,0.062,0.426,0.212,0.546,0.422l0.001,0.002L6.991,5.455H5.197
		L12.797,1.031z"/>
	<path fill="#3F51B5" d="M18.636,10h-3.182c-1.504,0-2.727,1.223-2.727,2.727s1.223,2.727,2.727,2.727h3.182
		c0.752,0,1.364-0.612,1.364-1.364v-2.727C20,10.612,19.388,10,18.636,10z M15.455,13.637c-0.501,0-0.909-0.408-0.909-0.909
		s0.408-0.909,0.909-0.909s0.909,0.408,0.909,0.909S15.956,13.637,15.455,13.637z"/>
</g>
<g>
</g>
<g>
</g>
<g>
</g>
<g>
</g>
<g>
</g>
<g>
</g>
</svg>
