<?xml version="1.0" encoding="UTF-8"?>
<svg width="14px" height="13px" viewBox="0 0 14 13" version="1.1" xmlns="http://www.w3.org/2000/svg" xmlns:xlink="http://www.w3.org/1999/xlink">
    <!-- Generator: Sketch 52.3 (67297) - http://www.bohemiancoding.com/sketch -->
    <title>desaldo icon</title>
    <desc>Created with Sketch.</desc>
    <g id="Symbols" stroke="none" stroke-width="1" fill="none" fill-rule="evenodd">
        <g id="Icons/Features/de-saldo" transform="translate(-19.000000, 0.000000)">
            <g id="Page-1">
                <g id="desaldo-icon" transform="translate(19.000000, 0.000000)">
                    <path d="M11.5710891,7.3125 L11.5710891,8.9375 L10.7790099,8.9375 L9.98693069,8.9375 C9.55049505,8.9375 9.19485149,8.5726875 9.19485149,8.125 C9.19485149,7.6773125 9.55049505,7.3125 9.98693069,7.3125 L10.7790099,7.3125 L11.5710891,7.3125 Z M2.06613861,11.375 L2.06613861,9.75 L2.06613861,4.875 L2.85821782,4.875 L8.79405941,4.875 L10.7790099,4.875 L10.7790099,5.6875 L9.98693069,5.6875 C8.67683168,5.6875 7.61069307,6.781125 7.61069307,8.125 C7.61069307,9.468875 8.67683168,10.5625 9.98693069,10.5625 L10.7790099,10.5625 L10.7790099,11.375 L2.06613861,11.375 Z M2.85821782,1.625 L8.40277228,1.625 L8.40277228,3.25 L2.85821782,3.25 C2.42178218,3.25 2.06613861,2.8851875 2.06613861,2.4375 C2.06613861,1.9898125 2.42178218,1.625 2.85821782,1.625 L2.85821782,1.625 Z M12.3631683,5.913375 L12.3631683,4.80675 C12.3631683,3.9479375 11.6827723,3.25 10.8455446,3.25 L9.98693069,3.25 L9.98693069,0.8125 C9.98693069,0.364 9.63207921,0 9.19485149,0 L2.85821782,0 C1.54811881,0 0.481980198,1.093625 0.481980198,2.4375 L0.481980198,4.80675 L0.481980198,9.75 L0.481980198,11.44325 C0.481980198,12.3020625 1.16237624,13 1.99960396,13 L10.8455446,13 C11.6827723,13 12.3631683,12.3020625 12.3631683,11.44325 L12.3631683,10.336625 C12.8344554,10.0546875 13.1552475,9.5363125 13.1552475,8.9375 L13.1552475,7.3125 C13.1552475,6.7136875 12.8344554,6.1953125 12.3631683,5.913375 L12.3631683,5.913375 Z" id="Fill-1" fill="#445066"></path>
                    <path d="M2.85821782,1.625 L8.40277228,1.625 L8.40277228,3.25 L2.85821782,3.25 C2.42178218,3.25 2.06613861,2.8851875 2.06613861,2.4375 C2.06613861,1.9898125 2.42178218,1.625 2.85821782,1.625" id="Fill-17" fill="#00ADED"></path>
                    <path d="M2.06613861,11.375 L2.06613861,9.75 L2.06613861,4.875 L2.85821782,4.875 L8.79405941,4.875 L10.7790099,4.875 L10.7790099,5.6875 L9.98693069,5.6875 C8.67683168,5.6875 7.61069307,6.781125 7.61069307,8.125 C7.61069307,9.468875 8.67683168,10.5625 9.98693069,10.5625 L10.7790099,10.5625 L10.7790099,11.375 L2.06613861,11.375 Z" id="Fill-19" fill="#FFFFFF"></path>
                    <path d="M11.5710891,7.3125 L11.5710891,8.9375 L10.7790099,8.9375 L9.98693069,8.9375 C9.55049505,8.9375 9.19485149,8.5726875 9.19485149,8.125 C9.19485149,7.6773125 9.55049505,7.3125 9.98693069,7.3125 L10.7790099,7.3125 L11.5710891,7.3125 Z" id="Fill-21" fill="#FFC30F"></path>
                </g>
            </g>
        </g>
    </g>
</svg>