<?xml version="1.0" encoding="utf-8"?>
<!-- Generator: Adobe Illustrator 17.0.0, SVG Export Plug-In . SVG Version: 6.00 Build 0)  -->
<!DOCTYPE svg PUBLIC "-//W3C//DTD SVG 1.1//EN" "http://www.w3.org/Graphics/SVG/1.1/DTD/svg11.dtd">
<svg version="1.1" id="Layer_1" xmlns="http://www.w3.org/2000/svg" xmlns:xlink="http://www.w3.org/1999/xlink" x="0px" y="0px"
	 width="20px" height="18px" viewBox="0 0 20 18" enable-background="new 0 0 20 18" xml:space="preserve">
<g>
	<path fill="#F44336" d="M18.4,6.221h-1.273c0.149,0.85-0.209,1.746-0.977,2.227c-0.339,0.212-0.728,0.325-1.126,0.325
		c-0.748,0-1.429-0.384-1.823-1.028c-0.278-0.456-0.368-1.001-0.275-1.523H7.073c0.093,0.523,0.003,1.068-0.275,1.524
		C6.405,8.389,5.724,8.773,4.976,8.773c-0.398,0-0.787-0.112-1.126-0.325C3.082,7.967,2.723,7.071,2.873,6.221H1.6
		c-0.884,0-1.6,0.725-1.6,1.62c0,0.895,0.716,1.62,1.6,1.62h0.177l1.173,7.227C3.072,17.445,3.717,18,4.474,18h11.052
		c0.757,0,1.402-0.555,1.525-1.311l1.173-7.227H18.4c0.884,0,1.6-0.725,1.6-1.62C20,6.947,19.284,6.221,18.4,6.221z M6.821,16.125
		c-0.048,0.007-0.096,0.011-0.143,0.011c-0.467,0-0.876-0.346-0.948-0.828l-0.664-4.485c-0.079-0.531,0.282-1.026,0.807-1.106
		c0.525-0.077,1.013,0.286,1.092,0.817l0.664,4.486C7.707,15.55,7.346,16.045,6.821,16.125z M10.96,15.163
		c0,0.537-0.429,0.973-0.96,0.973c-0.53,0-0.959-0.435-0.959-0.973v-4.486c0-0.537,0.429-0.972,0.959-0.972
		c0.53,0,0.96,0.435,0.96,0.972V15.163z M14.27,15.308c-0.071,0.482-0.481,0.828-0.948,0.828c-0.048,0-0.095-0.004-0.144-0.011
		c-0.524-0.08-0.885-0.575-0.807-1.106l0.664-4.486c0.079-0.531,0.565-0.897,1.091-0.817c0.524,0.08,0.886,0.575,0.807,1.106
		L14.27,15.308z"/>
	<path fill="#F44336" d="M4.186,7.897c0.246,0.154,0.519,0.228,0.79,0.228c0.503,0,0.994-0.256,1.278-0.721
		c0.261-0.428,0.284-0.935,0.111-1.368l2.85-4.666c0.258-0.422,0.129-0.975-0.288-1.236C8.782,0.044,8.621,0,8.462,0
		C8.165,0,7.875,0.151,7.707,0.426L4.858,5.092C4.398,5.129,3.961,5.375,3.7,5.803C3.263,6.517,3.482,7.455,4.186,7.897z"/>
	<path fill="#F44336" d="M13.635,6.036c-0.172,0.433-0.15,0.94,0.111,1.368c0.284,0.465,0.775,0.721,1.278,0.721
		c0.27,0,0.543-0.074,0.79-0.228c0.705-0.442,0.923-1.38,0.486-2.094c-0.261-0.428-0.698-0.674-1.158-0.711l-2.85-4.666
		C12.125,0.151,11.835,0,11.538,0c-0.159,0-0.32,0.044-0.466,0.135c-0.416,0.261-0.544,0.814-0.287,1.236L13.635,6.036z"/>
</g>
<g>
</g>
<g>
</g>
<g>
</g>
<g>
</g>
<g>
</g>
<g>
</g>
</svg>
